<svg xmlns:inkscape="http://www.inkscape.org/namespaces/inkscape" xmlns:sodipodi="http://sodipodi.sourceforge.net/DTD/sodipodi-0.dtd" xmlns="http://www.w3.org/2000/svg" xmlns:svg="http://www.w3.org/2000/svg" width="899.73999" height="364.89999" viewBox="0 0 238.0562 96.546454" id="svg14856"><defs id="defs14853"></defs><g inkscape:label="Capa 1" inkscape:groupmode="layer" id="layer1" transform="translate(40.043385,-44.979141)"><g id="g14501" transform="matrix(0.26458333,0,0,0.26458333,251.24434,-49.622629)"><polygon class="st0" points="-773.77,487.57 -903.3,487.57 -937.35,605.01 -1066.35,605.01 -1100.93,722.45 -841.61,722.45 " id="polygon14439" style="fill:#363637"></polygon><polygon class="st2" points="-1075.76,592.43 -946.23,592.43 -912.18,474.99 -783.18,474.99 -748.6,357.55 -1007.92,357.55 " id="polygon14441" style="fill:#c4027b"></polygon><g id="g14455"><path class="st0" d="m -607.51,490.68 h -33.46 v -10.64 c 0,-4.96 -0.43,-8.13 -1.28,-9.49 -0.86,-1.36 -2.28,-2.04 -4.28,-2.04 -2.17,0 -3.81,0.92 -4.92,2.75 -1.11,1.83 -1.67,4.61 -1.67,8.34 0,4.79 0.63,8.4 1.88,10.82 1.2,2.42 4.59,5.35 10.18,8.78 16.04,9.86 26.13,17.95 30.3,24.28 4.16,6.32 6.25,16.52 6.25,30.59 0,10.22 -1.16,17.76 -3.47,22.61 -2.31,4.85 -6.77,8.91 -13.39,12.19 -6.62,3.28 -14.32,4.92 -23.1,4.92 -9.64,0 -17.87,-1.89 -24.68,-5.67 -6.82,-3.78 -11.28,-8.6 -13.39,-14.45 -2.11,-5.85 -3.17,-14.15 -3.17,-24.91 v -9.4 h 33.45 v 17.47 c 0,5.38 0.47,8.84 1.41,10.37 0.94,1.54 2.61,2.31 5.01,2.31 2.4,0 4.18,-0.97 5.35,-2.92 1.17,-1.95 1.76,-4.85 1.76,-8.69 0,-8.45 -1.11,-13.98 -3.34,-16.58 -2.28,-2.6 -7.9,-6.95 -16.86,-13.03 -8.95,-6.15 -14.89,-10.61 -17.8,-13.39 -2.91,-2.78 -5.32,-6.62 -7.23,-11.53 -1.91,-4.91 -2.86,-11.17 -2.86,-18.8 0,-10.99 1.35,-19.03 4.06,-24.12 2.71,-5.08 7.09,-9.06 13.13,-11.92 6.05,-2.87 13.35,-4.3 21.9,-4.3 9.36,0 17.33,1.57 23.91,4.7 6.59,3.13 10.95,7.08 13.09,11.84 2.14,4.76 3.21,12.84 3.21,24.25 v 5.66 z" id="path14443" style="fill:#363637"></path><path class="st0" d="m -510.92,531.29 c 0,14.42 -0.33,24.63 -0.98,30.63 -0.66,6 -2.71,11.48 -6.16,16.45 -3.45,4.96 -8.11,8.78 -13.99,11.44 -5.87,2.66 -12.72,3.99 -20.53,3.99 -7.41,0 -14.07,-1.26 -19.98,-3.77 -5.91,-2.51 -10.65,-6.28 -14.25,-11.3 -3.59,-5.02 -5.73,-10.49 -6.41,-16.4 -0.69,-5.91 -1.03,-16.25 -1.03,-31.03 v -24.56 c 0,-14.42 0.33,-24.63 0.98,-30.63 0.66,-6 2.71,-11.48 6.16,-16.45 3.45,-4.96 8.11,-8.77 13.99,-11.44 5.87,-2.66 12.72,-3.99 20.53,-3.99 7.41,0 14.07,1.26 19.98,3.77 5.9,2.51 10.65,6.28 14.25,11.31 3.59,5.03 5.73,10.49 6.41,16.4 0.68,5.91 1.03,16.26 1.03,31.03 z m -36.02,-47.17 c 0,-6.68 -0.36,-10.95 -1.07,-12.81 -0.71,-1.86 -2.18,-2.79 -4.41,-2.79 -1.88,0 -3.32,0.75 -4.32,2.26 -1,1.51 -1.5,5.96 -1.5,13.34 v 67.02 c 0,8.34 0.33,13.48 0.98,15.43 0.66,1.95 2.18,2.92 4.58,2.92 2.45,0 4.02,-1.12 4.71,-3.37 0.68,-2.25 1.03,-7.59 1.03,-16.05 z" id="path14445" style="fill:#363637"></path><path class="st0" d="m -461.46,447.24 v 114.82 h 21.91 v 28.73 h -57.92 V 447.24 Z" id="path14447" style="fill:#363637"></path><path class="st0" d="m -394.81,447.24 v 143.54 h -36.02 V 447.24 Z" id="path14449" style="fill:#363637"></path><path class="st0" d="m -380.35,447.24 h 26.95 c 17.4,0 29.16,0.83 35.3,2.48 6.13,1.65 10.79,4.37 13.99,8.16 3.19,3.78 5.19,8 5.99,12.64 0.8,4.64 1.2,13.76 1.2,27.35 v 50.27 c 0,12.89 -0.59,21.5 -1.75,25.84 -1.17,4.35 -3.21,7.75 -6.12,10.2 -2.91,2.45 -6.5,4.17 -10.78,5.14 -4.28,0.97 -10.72,1.46 -19.34,1.46 h -45.43 V 447.24 Z m 36.02,24.56 v 94.42 c 5.19,0 8.38,-1.08 9.58,-3.24 1.2,-2.15 1.8,-8.02 1.8,-17.6 v -55.77 c 0,-6.5 -0.2,-10.67 -0.6,-12.5 -0.4,-1.84 -1.31,-3.18 -2.74,-4.03 -1.42,-0.85 -4.11,-1.28 -8.04,-1.28 z" id="path14451" style="fill:#363637"></path><path class="st0" d="m -201.19,531.29 c 0,14.42 -0.33,24.63 -0.98,30.63 -0.66,6 -2.71,11.48 -6.16,16.45 -3.45,4.96 -8.11,8.78 -13.99,11.44 -5.87,2.66 -12.72,3.99 -20.53,3.99 -7.41,0 -14.07,-1.26 -19.98,-3.77 -5.9,-2.51 -10.65,-6.28 -14.25,-11.3 -3.59,-5.02 -5.73,-10.49 -6.41,-16.4 -0.69,-5.91 -1.03,-16.25 -1.03,-31.03 v -24.56 c 0,-14.42 0.33,-24.63 0.98,-30.63 0.66,-6 2.71,-11.48 6.16,-16.45 3.45,-4.96 8.11,-8.77 13.99,-11.44 5.87,-2.66 12.72,-3.99 20.53,-3.99 7.41,0 14.07,1.26 19.98,3.77 5.9,2.51 10.65,6.28 14.25,11.31 3.59,5.03 5.73,10.49 6.41,16.4 0.68,5.91 1.03,16.26 1.03,31.03 z m -36.03,-47.17 c 0,-6.68 -0.36,-10.95 -1.07,-12.81 -0.71,-1.86 -2.18,-2.79 -4.41,-2.79 -1.88,0 -3.32,0.75 -4.32,2.26 -1,1.51 -1.5,5.96 -1.5,13.34 v 67.02 c 0,8.34 0.33,13.48 0.98,15.43 0.65,1.95 2.18,2.92 4.58,2.92 2.45,0 4.02,-1.12 4.71,-3.37 0.68,-2.25 1.03,-7.59 1.03,-16.05 z" id="path14453" style="fill:#363637"></path></g><g id="g14499" transform="matrix(0.99286572,0,0,0.99286572,-6.6621867,4.3761724)"><path class="st2" d="m -657.47,656.21 c -1.69,0.88 -5,1.72 -9.19,1.72 -10.3,0 -17.95,-7.17 -17.95,-21 0,-14.1 8.33,-21.84 19,-21.84 4.21,0 6.99,0.91 8.2,1.59 l -1.2,4.29 c -1.66,-0.82 -3.92,-1.47 -6.89,-1.47 -7.91,0 -13.81,5.69 -13.81,17.17 0,10.98 5.34,16.79 13.66,16.79 2.76,0 5.47,-0.59 7.24,-1.46 z" id="path14457" style="fill:#c4027b"></path><path class="st2" d="m -628.86,642.19 c 0,11.23 -6.76,15.8 -12.95,15.8 -7.04,0 -12.55,-5.61 -12.55,-15.42 0,-10.29 5.87,-15.76 12.96,-15.76 7.36,0 12.54,5.87 12.54,15.38 z m -20.37,0.24 c 0,6.09 2.8,11.56 7.63,11.56 4.72,0 7.6,-5.51 7.6,-11.67 0,-4.92 -1.97,-11.52 -7.57,-11.52 -5.55,0 -7.66,6.29 -7.66,11.63 z" id="path14459" style="fill:#c4027b"></path><path class="st2" d="m -622.7,635.41 c 0,-3.24 -0.11,-5.52 -0.24,-7.97 h 4.46 l 0.27,4.52 h 0.14 c 1.37,-2.69 4.42,-5.15 8.68,-5.15 3.98,0 9.23,2.65 9.23,12.02 v 18.53 h -5.04 V 639.5 c 0,-4.46 -1.43,-8.36 -5.88,-8.36 -3,0 -5.43,2.27 -6.26,5.37 -0.2,0.68 -0.32,1.63 -0.32,2.57 v 18.28 h -5.04 z" id="path14461" style="fill:#c4027b"></path><path class="st2" d="m -592.23,635.41 c 0,-3.24 -0.11,-5.52 -0.24,-7.97 h 4.46 l 0.27,4.52 h 0.14 c 1.37,-2.69 4.42,-5.15 8.68,-5.15 3.98,0 9.23,2.65 9.23,12.02 v 18.53 h -5.04 V 639.5 c 0,-4.46 -1.43,-8.36 -5.88,-8.36 -3,0 -5.43,2.27 -6.26,5.37 -0.2,0.68 -0.32,1.63 -0.32,2.57 v 18.28 h -5.04 z" id="path14463" style="fill:#c4027b"></path><path class="st2" d="m -558.72,643.21 c 0.08,7.91 4.28,10.61 8.97,10.61 3.23,0 5.34,-0.64 7.04,-1.41 l 0.87,3.75 c -1.77,0.89 -4.76,1.77 -8.67,1.77 -8.29,0 -13.11,-6.05 -13.11,-15.08 0,-9.26 4.81,-16.04 12.45,-16.04 8.38,0 10.81,7.93 10.81,13.81 0,1.15 -0.05,1.96 -0.15,2.59 z m 13.49,-3.79 c 0.06,-4.2 -1.58,-8.77 -6.36,-8.77 -4.67,0 -6.72,4.88 -7.08,8.77 z" id="path14465" style="fill:#c4027b"></path><path class="st2" d="m -515.61,656.38 c -1.27,0.67 -3.91,1.54 -7.24,1.54 -8,0 -13.28,-5.88 -13.28,-15.26 0,-9.04 5.52,-15.84 14.31,-15.84 2.63,0 5.09,0.7 6.34,1.4 l -1.09,4.09 c -1.09,-0.59 -2.81,-1.25 -5.29,-1.25 -6,0 -9.15,5.29 -9.14,11.41 0,6.95 3.79,11.2 9.09,11.2 2.43,0 4.16,-0.62 5.51,-1.25 z" id="path14467" style="fill:#c4027b"></path><path class="st2" d="m -503.19,619.01 v 8.42 h 6.96 v 3.97 h -6.96 v 16.63 c 0,3.78 1.13,5.56 3.69,5.56 1.17,0 2.05,-0.14 2.69,-0.33 l 0.23,4 c -0.96,0.39 -2.43,0.66 -4.31,0.66 -2.24,0 -4.13,-0.73 -5.33,-2.15 -1.36,-1.56 -1.94,-4.01 -1.94,-7.72 V 631.4 h -4.19 v -3.97 h 4.19 v -7.02 z" id="path14469" style="fill:#c4027b"></path><path class="st2" d="m -490.9,657.36 v -29.93 h 5.04 v 29.93 z" id="path14471" style="fill:#c4027b"></path><path class="st2" d="m -490.9,619.61 v -6.21 h 5.04 v 6.21 z" id="path14473" style="fill:#c4027b"></path><path class="st2" d="m -285.38,619.61 v -6.21 h 5.04 v 6.21 z" id="path14475" style="fill:#c4027b"></path><path class="st2" d="m -477.82,635.41 c 0,-3.24 -0.11,-5.52 -0.24,-7.97 h 4.46 l 0.27,4.52 h 0.14 c 1.37,-2.69 4.42,-5.15 8.68,-5.15 3.98,0 9.23,2.65 9.23,12.02 v 18.53 h -5.04 V 639.5 c 0,-4.46 -1.43,-8.36 -5.88,-8.36 -3,0 -5.43,2.27 -6.26,5.37 -0.2,0.68 -0.32,1.63 -0.32,2.57 v 18.28 h -5.04 z" id="path14477" style="fill:#c4027b"></path><path class="st2" d="m -424.57,627.43 c -0.13,2.1 -0.25,4.6 -0.25,8.53 v 17.19 c 0,7.21 -1.24,11.02 -3.75,13.51 -2.51,2.5 -6.16,3.47 -9.68,3.47 -3.19,0 -6.56,-0.77 -8.67,-2.17 l 1.24,-4.06 c 1.7,1.06 4.35,2.07 7.57,2.07 4.85,0 8.29,-2.74 8.29,-10.08 v -3.25 h -0.12 c -1.4,2.67 -4.24,4.62 -8.09,4.62 -6.58,0 -11.18,-6.23 -11.18,-14.68 0,-10.42 5.91,-15.78 11.87,-15.78 4.43,0 6.76,2.5 7.93,4.77 h 0.12 l 0.22,-4.15 h 4.5 z m -5.27,11.34 c 0,-0.85 -0.07,-1.65 -0.27,-2.36 -0.83,-2.83 -2.92,-5.42 -6.42,-5.42 -4.51,0 -7.57,4.47 -7.57,11.33 0,6.4 2.74,10.88 7.52,10.88 2.71,0 5.3,-1.69 6.36,-5.21 0.27,-0.9 0.38,-1.92 0.38,-2.84 z" id="path14479" style="fill:#c4027b"></path><path class="st2" d="m -405.63,651.12 c 2.03,1.32 5.14,2.4 8.24,2.4 4.99,0 7.93,-2.88 7.93,-7.1 0,-3.86 -2.18,-6.16 -6.93,-8.38 -5.55,-2.38 -9.74,-6.05 -9.74,-11.76 0,-6.43 4.93,-11.2 12.34,-11.2 3.61,0 6.39,0.94 7.91,1.87 l -1.35,4.31 c -1.2,-0.77 -3.6,-1.81 -6.76,-1.81 -5.06,0 -7.08,3.31 -7.08,6.16 0,3.95 2.34,5.78 7.39,8.18 6.24,3.01 9.29,6.54 9.29,12.21 0,6.64 -4.65,11.93 -13.25,11.93 -3.55,0 -7.39,-1.13 -9.24,-2.45 z" id="path14481" style="fill:#c4027b"></path><path class="st2" d="m -354.04,642.19 c 0,11.23 -6.76,15.8 -12.95,15.8 -7.04,0 -12.55,-5.61 -12.55,-15.42 0,-10.29 5.87,-15.76 12.96,-15.76 7.37,0 12.54,5.87 12.54,15.38 z m -20.36,0.24 c 0,6.09 2.8,11.56 7.63,11.56 4.72,0 7.6,-5.51 7.6,-11.67 0,-4.92 -1.97,-11.52 -7.57,-11.52 -5.55,0 -7.66,6.29 -7.66,11.63 z" id="path14483" style="fill:#c4027b"></path><path class="st2" d="m -347.87,613.76 h 5.04 v 43.61 h -5.04 z" id="path14485" style="fill:#c4027b"></path><path class="st2" d="m -312.48,649.18 c 0,3.19 0.11,5.86 0.24,8.18 h -4.46 l -0.29,-4.37 h -0.14 c -1.2,2.13 -4,4.99 -8.56,4.99 -4.68,0 -9.08,-3.06 -9.08,-12.64 v -17.92 h 5.04 v 17.04 c 0,5.4 1.42,9.17 5.69,9.17 3.29,0 5.36,-2.57 6.12,-4.7 0.24,-0.79 0.41,-1.74 0.41,-2.76 v -18.76 h 5.04 v 21.77 z" id="path14487" style="fill:#c4027b"></path><path class="st2" d="m -298.33,619.01 v 8.42 h 6.96 v 3.97 h -6.96 v 16.63 c 0,3.78 1.13,5.56 3.69,5.56 1.17,0 2.05,-0.14 2.69,-0.33 l 0.23,4 c -0.96,0.39 -2.43,0.66 -4.31,0.66 -2.24,0 -4.13,-0.73 -5.33,-2.15 -1.36,-1.56 -1.94,-4.01 -1.94,-7.72 V 631.4 h -4.19 v -3.97 h 4.19 v -7.02 z" id="path14489" style="fill:#c4027b"></path><path class="st2" d="m -286.04,657.36 v -29.93 h 5.04 v 29.93 z" id="path14491" style="fill:#c4027b"></path><path class="st2" d="m -249.31,642.19 c 0,11.23 -6.76,15.8 -12.95,15.8 -7.04,0 -12.55,-5.61 -12.55,-15.42 0,-10.29 5.87,-15.76 12.96,-15.76 7.37,0 12.54,5.87 12.54,15.38 z m -20.36,0.24 c 0,6.09 2.8,11.56 7.63,11.56 4.72,0 7.6,-5.51 7.6,-11.67 0,-4.92 -1.97,-11.52 -7.57,-11.52 -5.55,0 -7.66,6.29 -7.66,11.63 z" id="path14493" style="fill:#c4027b"></path><path class="st2" d="m -243.14,635.41 c 0,-3.24 -0.11,-5.52 -0.24,-7.97 h 4.46 l 0.27,4.52 h 0.14 c 1.37,-2.69 4.42,-5.15 8.68,-5.15 3.98,0 9.23,2.65 9.23,12.02 v 18.53 h -5.04 V 639.5 c 0,-4.46 -1.43,-8.36 -5.88,-8.36 -3,0 -5.43,2.27 -6.26,5.37 -0.2,0.68 -0.32,1.63 -0.32,2.57 v 18.28 h -5.04 z" id="path14495" style="fill:#c4027b"></path><path class="st2" d="m -213.43,652 c 1.42,0.93 3.89,1.96 6.28,1.96 3.47,0 5.21,-1.87 5.21,-4.43 0,-2.51 -1.31,-3.95 -4.87,-5.6 -4.79,-2.13 -7.14,-4.96 -7.13,-8.5 0,-4.83 3.7,-8.63 9.4,-8.63 2.74,0 5.02,0.81 6.5,1.75 l -1.28,3.85 c -1.11,-0.74 -2.96,-1.64 -5.3,-1.64 -2.91,0 -4.48,1.86 -4.48,4.02 0,2.33 1.41,3.45 4.92,5.12 4.49,2.01 7.09,4.65 7.1,9.04 0,5.52 -3.97,8.98 -10.18,8.98 -2.85,0 -5.6,-0.8 -7.4,-1.98 z" id="path14497" style="fill:#c4027b"></path></g></g></g></svg>